# xmcd
# 
# Track frame offsets:
#     182
#     14612
#     40210
#     56780
#     78977
#     115107
#     135477
#     157190
#     180577
#     193405
#     211185
# 
# Disc length: 2996
# 
# Revision: 5
# Processed by: cddbd v1.5.2PL0 Copyright (c) Steve Scherf et al.
# Submitted via: fre:ac v1.1beta1pre3
# 
DISCID=990bb20b
DTITLE=Blues Etílicos - Salamandra
DYEAR=1994
DGENRE=Blues
TTITLE0=Mateus Vai Ao Circo
TTITLE1=Death Letter
TTITLE2=People Get Ready
TTITLE3=Salamandra
TTITLE4=I Shouldn't Cry for You
TTITLE5=Real Good Woman
TTITLE6=Five and a Half
TTITLE7=Gamblers
TTITLE8=The Hook's Boogie
TTITLE9=Leaving Your Town
TTITLE10=Come on in My Kitchen
EXTD=\n\n
EXTT0=
EXTT1=
EXTT2=
EXTT3=
EXTT4=
EXTT5=
EXTT6=
EXTT7=
EXTT8=
EXTT9=
EXTT10=
PLAYORDER=
